<?xml version="1.0" encoding="iso-8859-1"?>
<!-- Generator: Adobe Illustrator 19.0.0, SVG Export Plug-In . SVG Version: 6.00 Build 0)  -->
<svg version="1.1" id="Capa_1" xmlns="http://www.w3.org/2000/svg" xmlns:xlink="http://www.w3.org/1999/xlink" x="0px" y="0px"
	 viewBox="0 0 512 512" style="enable-background:new 0 0 512 512;" xml:space="preserve">
<path style="fill:#CFD8DC;" d="M128,0h256c29.455,0,53.333,23.878,53.333,53.333v405.333C437.333,488.122,413.455,512,384,512H128
	c-29.455,0-53.333-23.878-53.333-53.333V53.333C74.667,23.878,98.545,0,128,0z"/>
<g>
	<path style="fill:#455A64;" d="M192,149.333c-4.443,0-8.42-2.754-9.984-6.912L160,83.712l-22.016,58.709
		c-2.074,5.52-8.229,8.314-13.749,6.24c-5.52-2.074-8.314-8.229-6.24-13.749l32-85.333c2.685-5.52,9.337-7.818,14.857-5.132
		c2.237,1.088,4.044,2.895,5.132,5.132l32,85.333c2.074,5.514-0.715,11.665-6.229,13.739
		C194.554,149.102,193.282,149.333,192,149.333z"/>
	<path style="fill:#455A64;" d="M181.333,128h-42.667c-5.891,0-10.667-4.776-10.667-10.667s4.776-10.667,10.667-10.667h42.667
		c5.891,0,10.667,4.776,10.667,10.667S187.224,128,181.333,128z"/>
	<path style="fill:#455A64;" d="M352,469.333c-4.443,0-8.42-2.754-9.984-6.912l-32-85.333c-2.074-5.52,0.72-11.676,6.24-13.749
		c5.52-2.074,11.676,0.72,13.749,6.24L352,428.288l22.016-58.709c2.074-5.52,8.229-8.314,13.749-6.24
		c5.52,2.074,8.314,8.229,6.24,13.749l-32,85.333C360.439,466.587,356.451,469.342,352,469.333z"/>
	<path style="fill:#455A64;" d="M373.333,405.333h-42.667c-5.891,0-10.667-4.776-10.667-10.667c0-5.891,4.776-10.667,10.667-10.667
		h42.667c5.891,0,10.667,4.776,10.667,10.667C384,400.558,379.224,405.333,373.333,405.333z"/>
	<path style="fill:#455A64;" d="M352,256c0-57.131-87.339-103.509-91.051-105.451c-3.1-1.624-6.799-1.624-9.899,0
		C247.339,152.491,160,198.869,160,256c0,56.789,39.381,70.656,68.715,61.696c-3.561,9.947-8.144,19.499-13.675,28.501
		c-3.205,4.943-1.796,11.548,3.148,14.753c1.731,1.122,3.75,1.718,5.812,1.716h64c5.891-0.006,10.661-4.787,10.655-10.678
		c-0.002-2.055-0.598-4.066-1.716-5.791c-5.541-9.004-10.124-18.564-13.675-28.523C312.555,326.741,352,312.789,352,256z"/>
</g>
<path d="M384,512H128c-29.455,0-53.333-23.878-53.333-53.333V53.333C74.667,23.878,98.545,0,128,0h256
	c29.455,0,53.333,23.878,53.333,53.333v405.333C437.333,488.122,413.455,512,384,512z M128,21.333c-17.673,0-32,14.327-32,32
	v405.333c0,17.673,14.327,32,32,32h256c17.673,0,32-14.327,32-32V53.333c0-17.673-14.327-32-32-32H128z"/>
<path d="M192,149.333c-4.443,0-8.42-2.754-9.984-6.912L160,83.712l-22.016,58.709c-2.074,5.52-8.229,8.314-13.749,6.24
	c-5.52-2.074-8.314-8.229-6.24-13.749l32-85.333c2.685-5.52,9.337-7.818,14.857-5.132c2.237,1.088,4.044,2.895,5.132,5.132
	l32,85.333c2.074,5.514-0.715,11.665-6.229,13.739C194.556,149.11,193.283,149.341,192,149.333z"/>
<path d="M181.333,128h-42.667c-5.891,0-10.667-4.776-10.667-10.667s4.776-10.667,10.667-10.667h42.667
	c5.891,0,10.667,4.776,10.667,10.667S187.224,128,181.333,128z"/>
<path d="M352,469.333c-4.443,0-8.42-2.754-9.984-6.912l-32-85.333c-2.074-5.52,0.72-11.676,6.24-13.749
	c5.52-2.074,11.676,0.72,13.749,6.24L352,428.288l22.016-58.709c2.074-5.52,8.229-8.314,13.749-6.24
	c5.52,2.074,8.314,8.229,6.24,13.749l-32,85.333C360.439,466.587,356.451,469.342,352,469.333z"/>
<path d="M373.333,405.333h-42.667c-5.891,0-10.667-4.776-10.667-10.667c0-5.891,4.776-10.667,10.667-10.667h42.667
	c5.891,0,10.667,4.776,10.667,10.667C384,400.558,379.224,405.333,373.333,405.333z"/>
<path d="M288,362.667h-64c-5.891-0.006-10.661-4.787-10.655-10.678c0.002-2.055,0.598-4.066,1.716-5.791
	c5.531-9.002,10.113-18.554,13.675-28.501C199.424,326.656,160,312.789,160,256c0-57.131,87.339-103.509,91.051-105.451
	c3.1-1.624,6.799-1.624,9.899,0C264.661,152.491,352,198.869,352,256c0,56.789-39.467,70.763-68.736,61.675
	c3.55,9.959,8.133,19.518,13.675,28.523c3.205,4.943,1.796,11.548-3.148,14.753C292.066,362.068,290.055,362.664,288,362.667z
	 M241.963,341.333h28.075c-7.006-14.154-11.586-29.385-13.547-45.056c-0.592-5.861,3.679-11.093,9.54-11.685
	c3.371-0.341,6.703,0.94,8.978,3.451c6.046,6.704,14.631,10.559,23.659,10.624c20.629,0,32-15.147,32-42.667
	c0-34.325-49.963-69.781-74.667-83.84c-24.704,14.059-74.667,49.579-74.667,83.84c0,27.52,11.371,42.667,32,42.667
	c9.034-0.076,17.62-3.947,23.659-10.667c3.955-4.366,10.701-4.698,15.067-0.743c2.511,2.275,3.791,5.607,3.451,8.978
	C253.553,311.921,248.974,327.166,241.963,341.333z"/>
<g>
</g>
<g>
</g>
<g>
</g>
<g>
</g>
<g>
</g>
<g>
</g>
<g>
</g>
<g>
</g>
<g>
</g>
<g>
</g>
<g>
</g>
<g>
</g>
<g>
</g>
<g>
</g>
<g>
</g>
</svg>
